<?xml version="1.0" standalone="no"?>
<!DOCTYPE svg PUBLIC "-//W3C//DTD SVG 20010904//EN"
 "http://www.w3.org/TR/2001/REC-SVG-20010904/DTD/svg10.dtd">
<svg version="1.0" xmlns="http://www.w3.org/2000/svg"
 width="192.000000pt" height="192.000000pt" viewBox="0 0 192.000000 192.000000"
 preserveAspectRatio="xMidYMid meet">

<g transform="translate(0.000000,192.000000) scale(0.100000,-0.100000)"
fill="#000000" stroke="none">
<path d="M896 1904 c-3 -9 -6 -83 -6 -165 l0 -149 -237 -2 -238 -3 -3 -77 -3
-78 93 0 92 0 46 -44 c25 -24 74 -59 110 -79 91 -48 107 -82 116 -245 6 -102
5 -125 -8 -140 -9 -9 -14 -28 -13 -42 1 -14 -4 -37 -11 -52 -24 -47 -10 -118
24 -118 14 0 27 -87 27 -185 1 -44 2 -180 3 -302 l2 -223 64 0 c49 0 65 4 70
16 3 9 6 180 6 381 0 321 2 366 16 380 13 13 15 32 11 96 -3 44 -9 82 -13 86
-15 10 -16 59 -5 125 6 33 13 86 16 117 l6 55 102 53 c56 29 118 68 137 87 33
32 39 33 120 36 l85 3 3 78 3 77 -241 0 -240 0 0 165 0 165 -64 0 c-49 0 -65
-4 -70 -16z m-71 -494 c-4 -14 1 -27 19 -43 l26 -24 -28 5 c-15 3 -39 13 -54
23 -14 11 -33 19 -40 19 -8 0 -23 9 -33 20 -18 20 -17 20 49 20 63 0 67 -1 61
-20z m381 -5 c-20 -14 -45 -25 -54 -25 -9 -1 -27 -6 -40 -14 -13 -7 -36 -10
-53 -8 -25 4 -29 8 -29 38 l0 34 106 0 107 0 -37 -25z"/>
</g>
</svg>
